<svg xmlns="http://www.w3.org/2000/svg" viewBox="0 0 430 120" role="img" aria-labelledby="title">
  <title id="title">Velyo Property Manager</title>
  <g transform="translate(2 8)">
    <path d="M21 10C40 18 51 44 62 73C69 91 77 100 92 107C74 84 71 58 58 34C49 18 37 9 21 10Z" fill="#111318"/>
    <path d="M96 3C79 18 72 44 62 73C74 53 87 33 109 13C109 7 105 4 96 3Z" fill="#C9A24B"/>
  </g>
  <text x="124" y="66" fill="#111318" font-family="Manrope,Arial,sans-serif" font-size="55" font-weight="400" letter-spacing="5">velyo</text>
  <line x1="126" y1="86" x2="158" y2="86" stroke="#C9A24B" stroke-width="2"/>
  <text x="169" y="91" fill="#9B742F" font-family="Manrope,Arial,sans-serif" font-size="11" font-weight="700" letter-spacing="4">PROPERTY MANAGER</text>
  <line x1="382" y1="86" x2="420" y2="86" stroke="#C9A24B" stroke-width="2"/>
</svg>
